<svg width="24" height="24" viewBox="0 0 24 24" fill="none" xmlns="http://www.w3.org/2000/svg">
<g id="icon/arrow-right">
<path id="Union" fill-rule="evenodd" clip-rule="evenodd" d="M12.4801 12.7521C12.8706 12.3616 12.8706 11.7285 12.4801 11.3379L7.7072 6.56501C7.31667 6.17449 7.31668 5.54132 7.7072 5.1508L8.06075 4.79724C8.45128 4.40672 9.08444 4.40672 9.47497 4.79724L16.0166 11.3388C16.4071 11.7294 16.4071 12.3625 16.0166 12.7531L14.9564 13.8133C14.9561 13.8135 14.9557 13.8135 14.9554 13.8133C14.9552 13.813 14.9548 13.813 14.9545 13.8133L9.47497 19.2928C9.08444 19.6834 8.45128 19.6834 8.06075 19.2928L7.7072 18.9393C7.31668 18.5488 7.31668 17.9156 7.7072 17.5251L12.4801 12.7521Z" fill="#0000A3"/>
</g>
</svg>
