<svg width="33" height="32" viewBox="0 0 33 32" fill="none" xmlns="http://www.w3.org/2000/svg">
<g id="icon/intercom">
<path id="Vector" fill-rule="evenodd" clip-rule="evenodd" d="M23.1689 5.33334C24.6405 5.33334 25.8334 6.52188 25.8334 7.99522V21.6715C25.8334 21.733 25.8313 21.794 25.8272 21.8545L25.8213 26.765L20.1947 24.3333H9.83131C8.35971 24.3333 7.16675 23.1448 7.16675 21.6715V7.99522C7.16675 6.52511 8.36283 5.33334 9.83131 5.33334H23.1689ZM10.8174 18.7235C10.3294 18.275 10.0245 18.5841 9.86325 18.7894C9.70201 18.9947 9.70798 19.3603 9.85322 19.6335C9.99846 19.9066 12.9393 21.6559 16.5985 21.6559C20.2576 21.6559 22.9748 19.9429 23.2033 19.6335C23.4317 19.324 23.5088 19.101 23.2033 18.8182C22.8977 18.5354 22.778 18.6512 22.3818 18.8301C21.9857 19.0089 19.3887 20.5539 16.5421 20.5277C13.6954 20.5015 11.3053 19.1719 10.8174 18.7235Z" fill="#0F0F0F"/>
</g>
</svg>
