<svg width="24" height="24" viewBox="0 0 24 24" fill="none" xmlns="http://www.w3.org/2000/svg">
<g id="icon/search-2">
<path id="Combined Shape" fill-rule="evenodd" clip-rule="evenodd" d="M9.97979 16.4789C6.38775 16.4789 3.47583 13.5669 3.47583 9.97491C3.47583 6.38287 6.38775 3.47095 9.97979 3.47095C13.5718 3.47095 16.4838 6.38287 16.4838 9.97491C16.4838 11.0262 16.2343 12.0193 15.7914 12.8982C15.5759 13.3258 15.619 13.8535 15.9576 14.1921L20.3984 18.6329C20.7889 19.0234 20.7889 19.6566 20.3984 20.0471L20.0449 20.4007C19.6543 20.7912 19.0212 20.7912 18.6307 20.4007L14.1875 15.9575C13.8493 15.6194 13.3224 15.5759 12.895 15.7905C12.0182 16.2309 11.0279 16.4789 9.97979 16.4789ZM9.97979 13.9789C12.1911 13.9789 13.9838 12.1862 13.9838 9.97491C13.9838 7.76358 12.1911 5.97095 9.97979 5.97095C7.76846 5.97095 5.97583 7.76358 5.97583 9.97491C5.97583 12.1862 7.76846 13.9789 9.97979 13.9789Z" fill="white"/>
</g>
</svg>
